<?xml version="1.0" encoding="UTF-8"?> <svg xmlns="http://www.w3.org/2000/svg" width="53" height="54" viewBox="0 0 53 54" fill="none"><path fill-rule="evenodd" clip-rule="evenodd" d="M29.5614 49.2055H34.3403V25.4497H41.1097L42.4645 20.692H34.3403V14.1486C34.3403 11.176 36.7694 8.75766 39.7553 8.75766V4C34.1344 4 29.5614 8.55308 29.5614 14.1486V20.692H27.1512C26.082 16.4599 22.2273 13.3176 17.6491 13.3176C12.2471 13.3176 7.85241 17.6927 7.85241 23.0708C7.85241 28.4489 12.2471 32.8241 17.6491 32.8241C22.2273 32.8241 26.082 29.6817 27.1512 25.4497H29.5614V49.2055ZM49.6548 20.692H53V25.4497H49.6548V41.1138H44.8759V14.4709H49.6548V20.692ZM17.6491 17.5994C14.6189 17.5994 12.1534 20.054 12.1534 23.0708C12.1534 26.0877 14.6189 28.5421 17.6491 28.5421C20.6795 28.5421 23.145 26.0877 23.145 23.0708C23.145 20.054 20.6795 17.5994 17.6491 17.5994ZM0 27.6272C0 34.8883 5.9335 40.7954 13.2266 40.7954V36.0377C8.56858 36.0377 4.7789 32.2644 4.7789 27.6272V14.4707H0V27.6272Z" fill="#FF774A"></path></svg> 